<?xml version="1.0" encoding="UTF-8" standalone="no"?><!DOCTYPE svg PUBLIC "-//W3C//DTD SVG 1.1//EN" "http://www.w3.org/Graphics/SVG/1.1/DTD/svg11.dtd"><svg width="100%" height="100%" viewBox="0 0 1858 1978" version="1.1" xmlns="http://www.w3.org/2000/svg" xmlns:xlink="http://www.w3.org/1999/xlink" xml:space="preserve" xmlns:serif="http://www.serif.com/" style="fill-rule:evenodd;clip-rule:evenodd;stroke-linecap:round;stroke-linejoin:round;stroke-miterlimit:1.5;"><rect id="Artboard1" x="0" y="0" width="1857.95" height="1977.46" style="fill:none;"/><rect x="481.275" y="178.424" width="949.606" height="1235.91" style="fill:#ebebeb;stroke:#000;stroke-width:10px;"/><g><rect x="324.543" y="178.424" width="141.732" height="283.465" style="fill:#ebebeb;stroke:#000;stroke-width:10px;"/><g><path d="M324.543,568.188l141.732,-141.733" style="fill:none;stroke:#000;stroke-width:10px;stroke-linecap:butt;"/><path d="M324.543,497.321l141.732,-141.732" style="fill:none;stroke:#000;stroke-width:10px;stroke-linecap:butt;"/><path d="M324.543,426.455l141.732,-141.732" style="fill:none;stroke:#000;stroke-width:10px;stroke-linecap:butt;"/><path d="M324.543,355.589l141.732,-141.732" style="fill:none;stroke:#000;stroke-width:10px;stroke-linecap:butt;"/><path d="M324.543,284.723l141.732,-141.732" style="fill:none;stroke:#000;stroke-width:10px;stroke-linecap:butt;"/><path d="M324.543,213.857l141.732,-141.732" style="fill:none;stroke:#000;stroke-width:10px;stroke-linecap:butt;"/></g></g><g><rect x="1445.88" y="178.424" width="141.732" height="283.465" style="fill:#ebebeb;stroke:#000;stroke-width:10px;"/><g><path d="M1587.61,568.188l-141.732,-141.733" style="fill:none;stroke:#000;stroke-width:10px;stroke-linecap:butt;"/><path d="M1587.61,497.321l-141.732,-141.732" style="fill:none;stroke:#000;stroke-width:10px;stroke-linecap:butt;"/><path d="M1587.61,426.455l-141.732,-141.732" style="fill:none;stroke:#000;stroke-width:10px;stroke-linecap:butt;"/><path d="M1587.61,355.589l-141.732,-141.732" style="fill:none;stroke:#000;stroke-width:10px;stroke-linecap:butt;"/><path d="M1587.61,284.723l-141.732,-141.732" style="fill:none;stroke:#000;stroke-width:10px;stroke-linecap:butt;"/><path d="M1587.61,213.857l-141.732,-141.732" style="fill:none;stroke:#000;stroke-width:10px;stroke-linecap:butt;"/></g></g><g><rect x="324.543" y="1130.87" width="141.732" height="283.465" style="fill:#ebebeb;stroke:#000;stroke-width:10px;"/><g><path d="M466.275,1520.63l-141.732,-141.732" style="fill:none;stroke:#000;stroke-width:10px;stroke-linecap:butt;"/><path d="M466.275,1449.76l-141.732,-141.732" style="fill:none;stroke:#000;stroke-width:10px;stroke-linecap:butt;"/><path d="M466.275,1378.9l-141.732,-141.732" style="fill:none;stroke:#000;stroke-width:10px;stroke-linecap:butt;"/><path d="M466.275,1308.03l-141.732,-141.732" style="fill:none;stroke:#000;stroke-width:10px;stroke-linecap:butt;"/><path d="M466.275,1237.16l-141.732,-141.732" style="fill:none;stroke:#000;stroke-width:10px;stroke-linecap:butt;"/><path d="M466.275,1166.3l-141.732,-141.733" style="fill:none;stroke:#000;stroke-width:10px;stroke-linecap:butt;"/></g></g><g><rect x="1445.88" y="1130.87" width="141.732" height="283.465" style="fill:#ebebeb;stroke:#000;stroke-width:10px;"/><g><path d="M1445.88,1520.63l141.732,-141.732" style="fill:none;stroke:#000;stroke-width:10px;stroke-linecap:butt;"/><path d="M1445.88,1449.76l141.732,-141.732" style="fill:none;stroke:#000;stroke-width:10px;stroke-linecap:butt;"/><path d="M1445.88,1378.9l141.732,-141.732" style="fill:none;stroke:#000;stroke-width:10px;stroke-linecap:butt;"/><path d="M1445.88,1308.03l141.732,-141.732" style="fill:none;stroke:#000;stroke-width:10px;stroke-linecap:butt;"/><path d="M1445.88,1237.16l141.732,-141.732" style="fill:none;stroke:#000;stroke-width:10px;stroke-linecap:butt;"/><path d="M1445.88,1166.3l141.732,-141.733" style="fill:none;stroke:#000;stroke-width:10px;stroke-linecap:butt;"/></g></g></svg>